<svg xmlns="http://www.w3.org/2000/svg" viewBox="0 0 800 500" font-family="Inter,Segoe UI,Arial,sans-serif"><defs><linearGradient id="bg" x1="0" y1="0" x2="1" y2="1"><stop offset="0" stop-color="#eef2ff"/><stop offset="1" stop-color="#e6fbf8"/></linearGradient><linearGradient id="g" x1="0" x2="1"><stop offset="0" stop-color="#2f5bea"/><stop offset="1" stop-color="#12b5a6"/></linearGradient><filter id="s" x="-10%" y="-10%" width="120%" height="130%"><feDropShadow dx="0" dy="6" stdDeviation="8" flood-color="#1e2a55" flood-opacity=".12"/></filter></defs><rect width="800" height="500" fill="url(#bg)"/><circle cx="740" cy="60" r="110" fill="#2f5bea" opacity=".08"/><circle cx="50" cy="470" r="130" fill="#12b5a6" opacity=".1"/><rect x="40" y="40" width="720" height="420" rx="18" fill="#fff" filter="url(#s)"/><rect x="40" y="40" width="720" height="38" rx="18" fill="#f1f4fb"/><rect x="40" y="62" width="720" height="16" fill="#f1f4fb"/><circle cx="62" cy="59" r="5" fill="#ff6b6b"/><circle cx="80" cy="59" r="5" fill="#ffd166"/><circle cx="98" cy="59" r="5" fill="#4ade80"/><rect x="150" y="49" width="320" height="20" rx="10" fill="#fff"/><text x="165" y="63" font-size="11" font-weight="500" fill="#7b86a3" text-anchor="start">dashboard · sales-performance</text><rect x="60" y="92" width="160" height="62" rx="12" fill="#2f5bea" opacity=".12"/><text x="74" y="114" font-size="11" font-weight="600" fill="#4b5675" text-anchor="start">Revenue</text><text x="74" y="142" font-size="20" font-weight="800" fill="#2f5bea" text-anchor="start">₦48.2M</text><rect x="232" y="92" width="160" height="62" rx="12" fill="#12b5a6" opacity=".12"/><text x="246" y="114" font-size="11" font-weight="600" fill="#4b5675" text-anchor="start">Orders</text><text x="246" y="142" font-size="20" font-weight="800" fill="#12b5a6" text-anchor="start">12,480</text><rect x="404" y="92" width="160" height="62" rx="12" fill="#a855f7" opacity=".12"/><text x="418" y="114" font-size="11" font-weight="600" fill="#4b5675" text-anchor="start">Avg. order</text><text x="418" y="142" font-size="20" font-weight="800" fill="#a855f7" text-anchor="start">₦3.9k</text><rect x="576" y="92" width="160" height="62" rx="12" fill="#22c55e" opacity=".12"/><text x="590" y="114" font-size="11" font-weight="600" fill="#4b5675" text-anchor="start">Growth</text><text x="590" y="142" font-size="20" font-weight="800" fill="#22c55e" text-anchor="start">+18%</text><rect x="60" y="170" width="420" height="270" rx="12" fill="#fff" filter="url(#s)"/><text x="76" y="196" font-size="13" font-weight="700" fill="#1b2238" text-anchor="start">Monthly revenue</text><rect x="82" y="340" width="28" height="80" rx="6" fill="#2f5bea" opacity=".9"/><rect x="128" y="310" width="28" height="110" rx="6" fill="#12b5a6" opacity=".9"/><rect x="174" y="325" width="28" height="95" rx="6" fill="#2f5bea" opacity=".9"/><rect x="220" y="280" width="28" height="140" rx="6" fill="#12b5a6" opacity=".9"/><rect x="266" y="295" width="28" height="125" rx="6" fill="#2f5bea" opacity=".9"/><rect x="312" y="250" width="28" height="170" rx="6" fill="#12b5a6" opacity=".9"/><rect x="358" y="270" width="28" height="150" rx="6" fill="#2f5bea" opacity=".9"/><rect x="404" y="230" width="28" height="190" rx="6" fill="#12b5a6" opacity=".9"/><polyline points="96,324.0 142,295.5 188,309.75 234,267.0 280,281.25 326,238.5 372,257.5 418,219.5" fill="none" stroke="#f59e0b" stroke-width="3" stroke-linecap="round" stroke-linejoin="round"/><rect x="496" y="170" width="244" height="270" rx="12" fill="#fff" filter="url(#s)"/><text x="512" y="196" font-size="13" font-weight="700" fill="#1b2238" text-anchor="start">Sales by category</text><circle cx="618" cy="305" r="58" fill="none" stroke="#2f5bea" stroke-width="26" stroke-dasharray="190 365" transform="rotate(-90 618 305)"/><circle cx="618" cy="305" r="58" fill="none" stroke="#12b5a6" stroke-width="26" stroke-dasharray="100 365" stroke-dashoffset="-190" transform="rotate(-90 618 305)"/><circle cx="618" cy="305" r="58" fill="none" stroke="#a855f7" stroke-width="26" stroke-dasharray="75 365" stroke-dashoffset="-290" transform="rotate(-90 618 305)"/><text x="618" y="312" font-size="16" font-weight="800" fill="#1b2238" text-anchor="middle">SQL</text><text x="770" y="488" font-size="10" fill="#7b86a3" text-anchor="end" font-family="Inter,Arial,sans-serif">Illustrative sample data</text></svg>